<svg id="visual" viewBox="0 0 900 600" width="900" height="600" xmlns="http://www.w3.org/2000/svg" xmlns:xlink="http://www.w3.org/1999/xlink" version="1.1"><rect x="0" y="0" width="900" height="600" fill="#000000"></rect><defs><linearGradient id="grad1_0" x1="33.3%" y1="0%" x2="100%" y2="100%"><stop offset="20%" stop-color="#6f7b84" stop-opacity="1"></stop><stop offset="80%" stop-color="#6f7b84" stop-opacity="1"></stop></linearGradient></defs><defs><linearGradient id="grad1_1" x1="33.3%" y1="0%" x2="100%" y2="100%"><stop offset="20%" stop-color="#6f7b84" stop-opacity="1"></stop><stop offset="80%" stop-color="#5d6972" stop-opacity="1"></stop></linearGradient></defs><defs><linearGradient id="grad1_2" x1="33.3%" y1="0%" x2="100%" y2="100%"><stop offset="20%" stop-color="#4c5760" stop-opacity="1"></stop><stop offset="80%" stop-color="#5d6972" stop-opacity="1"></stop></linearGradient></defs><defs><linearGradient id="grad1_3" x1="33.3%" y1="0%" x2="100%" y2="100%"><stop offset="20%" stop-color="#4c5760" stop-opacity="1"></stop><stop offset="80%" stop-color="#3b464e" stop-opacity="1"></stop></linearGradient></defs><defs><linearGradient id="grad1_4" x1="33.3%" y1="0%" x2="100%" y2="100%"><stop offset="20%" stop-color="#2b363e" stop-opacity="1"></stop><stop offset="80%" stop-color="#3b464e" stop-opacity="1"></stop></linearGradient></defs><defs><linearGradient id="grad1_5" x1="33.3%" y1="0%" x2="100%" y2="100%"><stop offset="20%" stop-color="#2b363e" stop-opacity="1"></stop><stop offset="80%" stop-color="#1b262e" stop-opacity="1"></stop></linearGradient></defs><defs><linearGradient id="grad1_6" x1="33.3%" y1="0%" x2="100%" y2="100%"><stop offset="20%" stop-color="#0c171e" stop-opacity="1"></stop><stop offset="80%" stop-color="#1b262e" stop-opacity="1"></stop></linearGradient></defs><defs><linearGradient id="grad1_7" x1="33.3%" y1="0%" x2="100%" y2="100%"><stop offset="20%" stop-color="#0c171e" stop-opacity="1"></stop><stop offset="80%" stop-color="#000000" stop-opacity="1"></stop></linearGradient></defs><defs><linearGradient id="grad2_0" x1="0%" y1="0%" x2="66.7%" y2="100%"><stop offset="20%" stop-color="#6f7b84" stop-opacity="1"></stop><stop offset="80%" stop-color="#6f7b84" stop-opacity="1"></stop></linearGradient></defs><defs><linearGradient id="grad2_1" x1="0%" y1="0%" x2="66.7%" y2="100%"><stop offset="20%" stop-color="#5d6972" stop-opacity="1"></stop><stop offset="80%" stop-color="#6f7b84" stop-opacity="1"></stop></linearGradient></defs><defs><linearGradient id="grad2_2" x1="0%" y1="0%" x2="66.7%" y2="100%"><stop offset="20%" stop-color="#5d6972" stop-opacity="1"></stop><stop offset="80%" stop-color="#4c5760" stop-opacity="1"></stop></linearGradient></defs><defs><linearGradient id="grad2_3" x1="0%" y1="0%" x2="66.7%" y2="100%"><stop offset="20%" stop-color="#3b464e" stop-opacity="1"></stop><stop offset="80%" stop-color="#4c5760" stop-opacity="1"></stop></linearGradient></defs><defs><linearGradient id="grad2_4" x1="0%" y1="0%" x2="66.7%" y2="100%"><stop offset="20%" stop-color="#3b464e" stop-opacity="1"></stop><stop offset="80%" stop-color="#2b363e" stop-opacity="1"></stop></linearGradient></defs><defs><linearGradient id="grad2_5" x1="0%" y1="0%" x2="66.7%" y2="100%"><stop offset="20%" stop-color="#1b262e" stop-opacity="1"></stop><stop offset="80%" stop-color="#2b363e" stop-opacity="1"></stop></linearGradient></defs><defs><linearGradient id="grad2_6" x1="0%" y1="0%" x2="66.7%" y2="100%"><stop offset="20%" stop-color="#1b262e" stop-opacity="1"></stop><stop offset="80%" stop-color="#0c171e" stop-opacity="1"></stop></linearGradient></defs><defs><linearGradient id="grad2_7" x1="0%" y1="0%" x2="66.7%" y2="100%"><stop offset="20%" stop-color="#000000" stop-opacity="1"></stop><stop offset="80%" stop-color="#0c171e" stop-opacity="1"></stop></linearGradient></defs><g transform="translate(900, 0)"><path d="M0 459.7C-67 460.3 -134 460.9 -175.9 424.7C-217.8 388.5 -234.6 315.4 -268.7 268.7C-302.8 222 -354.2 201.5 -389 161.1C-423.7 120.7 -441.7 60.4 -459.7 0L0 0Z" fill="#000f17"></path><path d="M0 402.2C-58.6 402.8 -117.3 403.3 -153.9 371.6C-190.6 339.9 -205.3 276 -235.1 235.1C-265 194.2 -310 176.3 -340.3 141C-370.7 105.6 -386.5 52.8 -402.2 0L0 0Z" fill="#141f26"></path><path d="M0 344.8C-50.3 345.2 -100.5 345.7 -131.9 318.5C-163.4 291.4 -175.9 236.6 -201.5 201.5C-227.1 166.5 -265.7 151.1 -291.7 120.8C-317.8 90.5 -331.3 45.3 -344.8 0L0 0Z" fill="#232e35"></path><path d="M0 287.3C-41.9 287.7 -83.8 288.1 -110 265.4C-136.1 242.8 -146.6 197.2 -167.9 167.9C-189.3 138.7 -221.4 125.9 -243.1 100.7C-264.8 75.4 -276.1 37.7 -287.3 0L0 0Z" fill="#333e46"></path><path d="M0 229.9C-33.5 230.2 -67 230.5 -88 212.4C-108.9 194.2 -117.3 157.7 -134.4 134.4C-151.4 111 -177.1 100.8 -194.5 80.6C-211.8 60.4 -220.8 30.2 -229.9 0L0 0Z" fill="#434f57"></path><path d="M0 172.4C-25.1 172.6 -50.3 172.8 -66 159.3C-81.7 145.7 -88 118.3 -100.8 100.8C-113.6 83.2 -132.8 75.6 -145.9 60.4C-158.9 45.3 -165.6 22.6 -172.4 0L0 0Z" fill="#546069"></path><path d="M0 114.9C-16.8 115.1 -33.5 115.2 -44 106.2C-54.5 97.1 -58.6 78.9 -67.2 67.2C-75.7 55.5 -88.6 50.4 -97.2 40.3C-105.9 30.2 -110.4 15.1 -114.9 0L0 0Z" fill="#66727b"></path><path d="M0 57.5C-8.4 57.5 -16.8 57.6 -22 53.1C-27.2 48.6 -29.3 39.4 -33.6 33.6C-37.9 27.7 -44.3 25.2 -48.6 20.1C-53 15.1 -55.2 7.5 -57.5 0L0 0Z" fill="#6f7b84"></path></g><g transform="translate(0, 600)"><path d="M0 -459.7C58.8 -437.8 117.6 -416 158 -381.6C198.5 -347.2 220.5 -300.2 268 -268C315.5 -235.7 388.5 -218.1 424.7 -175.9C460.9 -133.7 460.3 -66.9 459.7 0L0 0Z" fill="#000f17"></path><path d="M0 -402.2C51.5 -383.1 102.9 -364 138.3 -333.9C173.7 -303.8 192.9 -262.7 234.5 -234.5C276.1 -206.3 339.9 -190.9 371.6 -153.9C403.3 -117 402.8 -58.5 402.2 0L0 0Z" fill="#141f26"></path><path d="M0 -344.8C44.1 -328.4 88.2 -312 118.5 -286.2C148.8 -260.4 165.4 -225.2 201 -201C236.6 -176.8 291.4 -163.6 318.5 -131.9C345.7 -100.3 345.2 -50.1 344.8 0L0 0Z" fill="#232e35"></path><path d="M0 -287.3C36.8 -273.6 73.5 -260 98.8 -238.5C124 -217 137.8 -187.7 167.5 -167.5C197.2 -147.3 242.8 -136.3 265.4 -110C288.1 -83.6 287.7 -41.8 287.3 0L0 0Z" fill="#333e46"></path><path d="M0 -229.9C29.4 -218.9 58.8 -208 79 -190.8C99.2 -173.6 110.2 -150.1 134 -134C157.8 -117.9 194.3 -109.1 212.4 -88C230.5 -66.9 230.2 -33.4 229.9 0L0 0Z" fill="#434f57"></path><path d="M0 -172.4C22.1 -164.2 44.1 -156 59.3 -143.1C74.4 -130.2 82.7 -112.6 100.5 -100.5C118.3 -88.4 145.7 -81.8 159.3 -66C172.8 -50.1 172.6 -25.1 172.4 0L0 0Z" fill="#546069"></path><path d="M0 -114.9C14.7 -109.5 29.4 -104 39.5 -95.4C49.6 -86.8 55.1 -75.1 67 -67C78.9 -58.9 97.1 -54.5 106.2 -44C115.2 -33.4 115.1 -16.7 114.9 0L0 0Z" fill="#66727b"></path><path d="M0 -57.5C7.4 -54.7 14.7 -52 19.8 -47.7C24.8 -43.4 27.6 -37.5 33.5 -33.5C39.4 -29.5 48.6 -27.3 53.1 -22C57.6 -16.7 57.5 -8.4 57.5 0L0 0Z" fill="#6f7b84"></path></g></svg>